inDegrees=no
num_controls=7
num_derivatives=13
num_iterations=97
num_multipliers=7
num_parameters=0
num_slacks=7
num_states=26
objective=0.457856
objective_accelerations=0.065575
objective_balance=0.002130
objective_effort=0.021838
objective_height=0.359138
objective_ligament=0.009174
solver_duration=1326.986193
status=Solve_Succeeded
success=true
DataType=double
version=3
OpenSimVersion=4.5
endheader
time	/jointset/ground_pelvis/pelvis_tilt/value	/jointset/ground_pelvis/pelvis_tx/value	/jointset/ground_pelvis/pelvis_ty/value	/jointset/hip_l/hip_flexion_l/value	/jointset/hip_l/hip_adduction_l/value	/jointset/hip_l/hip_rotation_l/value	/jointset/back/lumbar_extension/value	/jointset/patellofemoral_l/patellar_flexion_l/value	/jointset/knee_l/knee_flexion_l/value	/jointset/knee_l/knee_adduction_l/value	/jointset/knee_l/knee_rotation_l/value	/jointset/ankle_l/ankle_angle_l/value	/jointset/subtalar_l/subtalar_angle_l/value	/jointset/ground_pelvis/pelvis_tilt/speed	/jointset/ground_pelvis/pelvis_tx/speed	/jointset/ground_pelvis/pelvis_ty/speed	/jointset/hip_l/hip_flexion_l/speed	/jointset/hip_l/hip_adduction_l/speed	/jointset/hip_l/hip_rotation_l/speed	/jointset/back/lumbar_extension/speed	/jointset/patellofemoral_l/patellar_flexion_l/speed	/jointset/knee_l/knee_flexion_l/speed	/jointset/knee_l/knee_adduction_l/speed	/jointset/knee_l/knee_rotation_l/speed	/jointset/ankle_l/ankle_angle_l/speed	/jointset/subtalar_l/subtalar_angle_l/speed	/forceset/tau_hip_flexion_l	/forceset/tau_hip_adduction_l	/forceset/tau_hip_rotation_l	/forceset/tau_knee_flexion_l	/forceset/tau_ankle_angle_l	/forceset/tau_subtalar_angle_l	/forceset/tau_lumbar_extension	lambda_cid13_p0	lambda_cid13_p1	lambda_cid13_p2	lambda_cid13_p3	lambda_cid13_p4	lambda_cid13_p5	lambda_cid14_p0	/jointset/ground_pelvis/pelvis_tilt/accel	/jointset/ground_pelvis/pelvis_tx/accel	/jointset/ground_pelvis/pelvis_ty/accel	/jointset/hip_l/hip_flexion_l/accel	/jointset/hip_l/hip_adduction_l/accel	/jointset/hip_l/hip_rotation_l/accel	/jointset/back/lumbar_extension/accel	/jointset/patellofemoral_l/patellar_flexion_l/accel	/jointset/knee_l/knee_flexion_l/accel	/jointset/knee_l/knee_adduction_l/accel	/jointset/knee_l/knee_rotation_l/accel	/jointset/ankle_l/ankle_angle_l/accel	/jointset/subtalar_l/subtalar_angle_l/accel	gamma_cid13_p0	gamma_cid13_p1	gamma_cid13_p2	gamma_cid13_p3	gamma_cid13_p4	gamma_cid13_p5	gamma_cid14_p0
1	-0.8296895835821589	-0.16315534569821	0.558617177587751	2.18165953798771	-0.3242292135808982	0.1008188829642958	-0.4363035985562367	1.247626149757066	1.247626149758558	0.01859222729715762	-0.1744740969912209	0.03981525913965601	0.1081792154477762	-0.170449860689124	0.002664850450269769	0.03632003623344807	0.01529806831912288	-0.01061526612685169	-0.0573307160618494	1.36931529029054e-05	-0.1705880611547286	-0.1705880611547282	-0.01250161275300197	-0.0001217105831691245	-0.02792999272333713	-0.01936842793369808	-0.383122631027375	-0.0062864854506667	-0.008333542853641978	-0.1701301382205365	0.1284616360214226	-0.0009055558830484788	0.2828239657736834	9.084240934290881	3.128174047637463	-5.720460539046877	-6.866919102606376	-554.764633220426	-57.65647045369584	-0.02600446536960842	2.748777045747985	0.6507369127748363	2.076919800288142	-7.940479526941481	-0.3875735524835626	-1.477108986437058	-0.0232392159607518	-4.451998060367057	-4.451998060366979	-0.4774682144980157	-0.03338405630684676	0.4413954149759451	-0.2487000935931197	-1.214340856690933e-08	-6.410705579869293e-08	-1.476997161107001e-08	-3.081007947610767e-09	-1.434089970206879e-08	3.4517279391843e-08	-1.496107829403575e-08
1.01	-0.8312573582299512	-0.1630961234859725	0.5590840876653644	2.181416275202303	-0.3243537658514503	0.1001726177168957	-0.4363033537555547	1.245697656058447	1.245697656059843	0.01844379549989432	-0.1744753783283284	0.03955801041510269	0.1079741137276124	-0.1430594726832717	0.00919649802289055	0.05705882935587762	-0.06398781604551089	-0.01428490556049108	-0.07191715812129108	3.303176516361291e-05	-0.2151068545918599	-0.2151068545918568	-0.01718278669745163	-0.0001315675108222544	-0.02352390745891861	-0.02164247246262881	-0.3837283953417046	-0.006110546404517105	-0.008330443246902854	-0.1693879168603604	0.1282836139254739	-0.0007877879129441167	0.2832140198183266	9.044436291332637	3.067631429430648	-5.692115271812398	-7.11145268241685	-554.8603315434575	-57.61817483389494	-0.0273042739864112	2.741006153797718	0.6569133133243589	2.071882167728729	-7.928224903656812	-0.3551052706205595	-1.448653095093975	0.0141851171646924	-4.451242626636335	-4.451242626636131	-0.4631672986098695	0.01566158704802628	0.4395861638880584	-0.215325137780823	-1.422418360067991e-08	-7.497625206818816e-08	-2.293101290448162e-08	-6.317193522337816e-09	-2.197496989701683e-08	5.1433018861693e-08	-1.877189272435376e-08
1.02	-0.8325498617025239	-0.1629710778712453	0.5597582902941032	2.180379037170721	-0.324514703742702	0.09938063979302079	-0.4363029826252817	1.243324089897206	1.243324089898507	0.01824860690035086	-0.1744766686151046	0.03934469675953668	0.1077465578611116	-0.1153956256456808	0.01582953094823082	0.07777854645855274	-0.1434969809074489	-0.01789239026678768	-0.08647325135658422	3.89590712207554e-05	-0.2596025536789965	-0.2596025536789954	-0.02185297320955792	-0.0001235005167741402	-0.01914297892596961	-0.02385925720107087	-0.3843341596560446	-0.00593460735837328	-0.008327343640152618	-0.1686456955001839	0.1281055918295265	-0.000670019942845477	0.2836040738629615	9.002115484696454	3.007120883933561	-5.663308102672654	-7.378745136598128	-555.025753087291	-57.56746677445973	-0.02952475124070271	2.803468852095642	0.6710139833187134	2.073104596337226	-7.985135626402213	-0.3751426070149984	-1.471039221607333	-0.02592147720142931	-4.447379190368111	-4.447379190368945	-0.4752707280293318	-0.02979927196658873	0.4363640686820064	-0.2372481354953872	-1.360044911352759e-08	-8.6379061450707e-08	-3.228440921322192e-08	-1.523531846902336e-08	-2.627319987624569e-08	6.504983687787762e-08	-2.204360596251333e-08
1.03	-0.833564425494402	-0.1627791750295941	0.5606394969986431	2.178545843577467	-0.3247113776969717	0.098443285862687	-0.4363025894167559	1.240505756728607	1.240505756730099	0.01800676506705485	-0.1744778118286834	0.03917495629226124	0.1074971126167329	-0.08747734655132358	0.02257005605487465	0.09845004246989333	-0.2231550491386029	-0.02142784953996734	-0.1009899354874643	3.941204255064775e-05	-0.3040525659403385	-0.3040525659403274	-0.02651146859874032	-0.0001028007046979608	-0.01481937326445956	-0.02601921603384022	-0.3845214891858699	-0.005688669117394934	-0.008308404804899663	-0.167879521764678	0.1278967973695485	-0.0004701242306625907	0.2837474136243296	8.974225374726183	2.908794151187351	-5.628904873205627	-7.659122363919805	-554.8561303073703	-57.56136507955571	-0.03307121222739357	2.791970768142959	0.678419678541144	2.062253173231414	-7.958144370044863	-0.3405470442863792	-1.440866461955392	0.01298809566658915	-4.442080047133747	-4.442080047131746	-0.46057683672607	0.01835355840821804	0.4282134174130329	-0.2037625767497055	-1.294911759044746e-08	-9.77873158649914e-08	-4.164997240987376e-08	-2.42114223888922e-08	-3.053739066959985e-08	7.863299243024931e-08	-2.530981816809984e-08
